<?xml version="1.0" encoding="UTF-8"?>
<!DOCTYPE svg PUBLIC "-//W3C//DTD SVG 1.1//EN" "http://www.w3.org/Graphics/SVG/1.1/DTD/svg11.dtd">
<!-- Creator: CorelDRAW 2018 (64-Bit) -->
<svg xmlns="http://www.w3.org/2000/svg" xml:space="preserve" width="460mm" height="100mm" version="1.1" style="shape-rendering:geometricPrecision; text-rendering:geometricPrecision; image-rendering:optimizeQuality; fill-rule:evenodd; clip-rule:evenodd"
viewBox="0 0 46000 10000"
 xmlns:xlink="http://www.w3.org/1999/xlink">
 <defs>
  <style type="text/css">
   <![CDATA[
    .fil1 {fill:#0D0606}
    .fil0 {fill:#E43433}
    .fil2 {fill:#FCEBDD}
    .fil3 {fill:#FDFDFD}
    .fil4 {fill:black;fill-rule:nonzero}
   ]]>
  </style>
 </defs>
 <g id="Слой_x0020_1">
  <metadata id="CorelCorpID_0Corel-Layer"/>
  <path class="fil0" d="M5499.03 9018.62c14.08,-168.16 -105.28,-176.48 166.96,-240 212.64,-49.6 195.92,25.44 274.8,104.48 -117.84,208.48 -197.76,248.48 -441.76,135.52zm-4286.8 -2454.48c313.36,-102.96 447.36,383.36 998.96,1073.76 209.28,262 840.24,788 1190.8,974.16 752.32,399.44 915.84,72.72 1086,406.56 -568.4,818.32 -3298.16,-1694.08 -3275.76,-2454.48zm5197.28 2082.4c-45.2,-314.8 258.08,-400.4 470.4,-552.88 272.56,-195.92 427.92,-287.68 625.68,-526.32 309.44,-373.36 784.88,-1142.72 989.2,-1248.32 41.84,702.4 -1484.24,2297.12 -2085.28,2327.52zm1330.4 -5929.92c-983.68,-1177.36 -2085.84,-1129.52 -1634,-1557.28 482.96,-457.12 2117.44,1562.48 2087.52,2220.24 -154.4,-176.64 -290.4,-467.68 -453.52,-662.96zm-2516.24 -1649.12c644.64,-179.76 464.88,434.4 -10.32,562.32 -438.96,118.16 -790.4,-338.96 10.32,-562.32zm-3869.6 2783.04c-167.68,-471.36 639.84,-1782.64 857.52,-2051.92 848.08,-1048.96 1841.2,-1073.84 1863.84,-501.6 -280.72,211.2 -649.28,150.8 -1009.52,339.52 -937.6,491.2 -1340.88,1454 -1711.84,2214zm-676.72 2502c-12.32,403.6 395.6,1088.56 610.24,1388.08 74.96,104.56 105.84,152.88 195.52,280.32 420.24,597.2 1256.32,1349.36 2000.32,1605.76 727.84,250.8 2458.16,279.2 3339.2,-297.92 1367.36,-895.76 2064.24,-2170.4 2394,-3761.76l-16.32 -362.08c-343.76,29.2 -332.24,14.56 -603.28,-64.24 -107.76,245.52 -154.96,244.96 -346.96,462.96l-275.92 395.28c-244.32,331.6 -907.6,993.76 -1227.6,1214.08 -1283.04,883.44 -2320.88,1164.16 -3775.44,68.16 -420.08,-316.56 -1189.84,-1051.12 -1432.88,-1484.88l-662.4 -706.24c384.56,-216.96 590.16,-511.84 873.12,-851.68l517.44 -755.28c268.64,-336.8 317.6,-401.12 656.56,-632.32 250,-170.56 652.32,-299.36 1070.48,-181.28 133.12,37.6 24.48,5.36 143.84,60 18.8,8.64 67.2,37.36 85.68,45.84 1253.04,575.44 1782,-1190.8 3175.36,756.4 233.04,325.68 286.32,547.28 673.04,563.68 -279.12,93.28 -264.32,13.04 -60,300.32 243.28,342.16 709.6,843.68 1166.24,731.04 98.88,-465.28 -221.52,-485.44 -282.64,-996.48 -207.92,-243.68 -689.28,-2136 -1528,-2867.44 -358.72,-312.8 -876.88,-667.76 -1591.76,-629.12 -504.16,27.28 -447.04,135.04 -808.16,270.88 -272.16,102.4 -438.56,-126.32 -741.36,-224.48 -1965.52,-637.36 -2842.72,1837.44 -3309.6,3209.36 -352.96,1036.96 -835.84,1232.88 -65.6,1252.48 -16,13.6 -39.76,25.28 -53.92,32.56l-258.96 106.96c-7.68,-13.92 -33.12,5.12 -48.32,11.76 42.72,379.68 212.16,686.96 188.08,1059.28z"/>
  <path class="fil1" d="M3223.03 7161.02c1074.08,322.64 1854.4,260.08 3048.4,89.28 -52.4,56.16 -39.84,54.64 -115.12,112.24l-563.6 253.44c-1008.08,333.2 -1562.64,58 -2369.68,-454.96zm-689.28 -3695.12c1246.4,-1120.64 1038.4,-262.48 2291.04,-258.08 962.64,3.44 1456.4,-805.12 2261.44,341.68l-703.04 51.04c-430.72,623.92 -461.84,377.6 -1560.24,372.32 -1124.4,-5.52 -1162.24,261.12 -1555.44,-367.28 -143.76,-15.2 -314.56,-13.12 -445.92,-32.32 -264.88,-38.64 -151.68,5.52 -287.84,-107.36zm-784.8 772.48c-302.08,403.52 -952,730.08 -873.12,851.68 219.12,337.84 430.4,458.88 662.4,706.24 243.04,433.76 1012.8,1168.32 1432.88,1484.88 1454.56,1096 2492.4,815.28 3775.44,-68.16 320,-220.32 983.28,-882.48 1227.6,-1214.08l275.92 -395.28c192,-218 239.2,-217.44 346.96,-462.96 271.04,78.8 259.52,93.44 603.28,64.24l16.32 362.08c47.76,-819.84 169.44,-495.76 -219.04,-1261.6l-102.64 -175.12c61.12,511.04 381.52,531.2 282.64,996.48 -456.64,112.64 -922.96,-388.88 -1166.24,-731.04 -204.32,-287.28 -219.12,-207.04 60,-300.32 -386.72,-16.4 -440,-238 -673.04,-563.68 -1393.36,-1947.2 -1922.32,-180.96 -3175.36,-756.4 -18.48,-8.48 -66.88,-37.2 -85.68,-45.84 -119.36,-54.64 -10.72,-22.4 -143.84,-60 -418.16,-118.08 -820.48,10.72 -1070.48,181.28 -338.96,231.2 -387.92,295.52 -656.56,632.32l-517.44 755.28z"/>
  <path class="fil2" d="M2533.75 3465.9c136.16,112.88 22.96,68.72 287.84,107.36 131.36,19.2 302.16,17.12 445.92,32.32 393.2,628.4 431.04,361.76 1555.44,367.28 1098.4,5.28 1129.52,251.6 1560.24,-372.32l703.04 -51.04c-805.04,-1146.8 -1298.8,-338.24 -2261.44,-341.68 -1252.64,-4.4 -1044.64,-862.56 -2291.04,258.08z"/>
  <path class="fil1" d="M677.35 6352.54c24.08,-372.32 -145.36,-679.6 -188.08,-1059.28 15.2,-6.64 40.64,-25.68 48.32,-11.76l258.96 -106.96c14.16,-7.28 37.92,-18.96 53.92,-32.56 -770.24,-19.6 -287.36,-215.52 65.6,-1252.48 466.88,-1371.92 1344.08,-3846.72 3309.6,-3209.36 302.8,98.16 469.2,326.88 741.36,224.48 361.12,-135.84 304,-243.6 808.16,-270.88 714.88,-38.64 1233.04,316.32 1591.76,629.12 838.72,731.44 1320.08,2623.76 1528,2867.44 -76.72,-786.88 -780.16,-2471.12 -1533.36,-3202.24 -1221.28,-1185.44 -2320.24,-239.44 -2694.96,-345.6 -396.96,-112.56 -452.72,-247.36 -992.48,-235.44 -1366.88,30.4 -2025.04,1259.76 -2474.72,2337.44 -234.96,563.28 -353.36,1209.52 -626.88,1740.96 -208.32,404.8 -288,414.48 -177.44,961.04 66.72,330.16 146.32,720.56 282.24,966.08z"/>
  <path class="fil3" d="M1354.07 3850.54c370.96,-760 774.24,-1722.8 1711.84,-2214 360.24,-188.72 728.8,-128.32 1009.52,-339.52 -22.64,-572.24 -1015.76,-547.36 -1863.84,501.6 -217.68,269.28 -1025.2,1580.56 -857.52,2051.92z"/>
  <path class="fil3" d="M2211.19 7637.9c-551.6,-690.4 -685.6,-1176.72 -998.96,-1073.76 -22.4,760.4 2707.36,3272.8 3275.76,2454.48 -170.16,-333.84 -333.68,-7.12 -1086,-406.56 -350.56,-186.16 -981.52,-712.16 -1190.8,-974.16z"/>
  <path class="fil3" d="M8193.43 3379.58c29.92,-657.76 -1604.56,-2677.36 -2087.52,-2220.24 -451.84,427.76 650.32,379.92 1634,1557.28 163.12,195.28 299.12,486.32 453.52,662.96z"/>
  <path class="fil3" d="M6409.51 8646.54c601.04,-30.4 2127.12,-1625.12 2085.28,-2327.52 -204.32,105.6 -679.76,874.96 -989.2,1248.32 -197.76,238.64 -353.12,330.4 -625.68,526.32 -212.32,152.48 -515.6,238.08 -470.4,552.88z"/>
  <path class="fil2" d="M3223.03 7161.02c807.04,512.96 1361.6,788.16 2369.68,454.96l563.6 -253.44c75.28,-57.6 62.72,-56.08 115.12,-112.24 -1194,170.8 -1974.32,233.36 -3048.4,-89.28z"/>
  <path class="fil3" d="M5223.67 1067.5c-800.72,223.36 -449.28,680.48 -10.32,562.32 475.2,-127.92 654.96,-742.08 10.32,-562.32z"/>
  <path class="fil3" d="M5499.03 9018.62c244,112.96 323.92,72.96 441.76,-135.52 -78.88,-79.04 -62.16,-154.08 -274.8,-104.48 -272.24,63.52 -152.88,71.84 -166.96,240z"/>
  <path class="fil4" d="M13681.73 7485.69c-138.12,36.04 -281.05,61.26 -428.79,76.87 -147.73,15.62 -297.86,24.03 -450.4,24.03 -443.2,0 -773.5,-100.9 -990.89,-301.48 -218.6,-200.58 -326.7,-508.05 -326.7,-923.63l0 -1844.86 -988.49 0 0 -511.66 988.49 0 0 -972.88 612.55 -158.54 0 1131.42 1584.23 0 0 511.66 -1584.23 0 0 1794.42c0,253.42 67.26,443.2 201.78,568.11 134.53,126.11 332.7,188.57 595.74,188.57 111.7,0 235.41,-8.41 368.73,-26.43 133.32,-16.81 272.65,-44.44 417.98,-81.67l0 526.07zm3919.13 -912.82c0,124.91 -21.62,236.62 -63.66,335.1 -42.03,98.49 -99.69,186.17 -172.95,261.84 -72.07,76.87 -157.34,141.73 -253.43,195.78 -96.09,54.05 -199.38,98.49 -308.68,133.32 -109.3,34.83 -221,61.25 -336.3,76.87 -115.31,16.81 -227.01,25.22 -337.51,25.22 -240.21,0 -460.01,-10.81 -661.79,-32.43 -200.58,-21.62 -397.56,-56.45 -589.73,-104.49l0 -562.11c206.58,58.85 411.97,103.29 616.15,134.52 205.39,30.03 408.37,45.64 610.15,45.64 294.27,0 511.66,-39.63 652.19,-118.91 140.53,-80.47 211.39,-193.37 211.39,-341.1 0,-63.66 -10.81,-120.11 -33.63,-170.56 -21.62,-50.44 -62.46,-98.49 -121.31,-144.13 -58.85,-45.64 -150.13,-93.68 -273.85,-142.93 -123.71,-49.24 -291.86,-105.69 -506.85,-168.15 -159.75,-48.04 -307.48,-100.89 -442,-160.94 -135.72,-60.06 -252.23,-130.92 -351.92,-212.59 -98.49,-81.68 -175.36,-178.96 -231.81,-288.26 -56.45,-110.5 -85.27,-241.42 -85.27,-391.56 0,-98.48 22.82,-206.58 68.46,-323.09 46.84,-117.7 124.91,-227 235.41,-327.89 110.5,-100.89 259.43,-184.97 448,-251.03 188.57,-67.26 423.99,-100.89 706.24,-100.89 139.33,0 293.06,7.21 462.42,22.82 169.35,14.41 345.91,40.84 529.67,78.07l0 547.7c-193.37,-46.85 -375.94,-81.68 -548.89,-103.3 -174.16,-22.82 -324.29,-33.63 -450.41,-33.63 -153.74,0 -282.25,12.01 -387.95,34.83 -104.49,24.03 -189.77,56.45 -253.42,97.29 -64.86,40.84 -111.7,88.88 -140.53,142.93 -27.63,55.25 -42.04,114.1 -42.04,177.76 0,63.66 12.01,121.31 37.23,172.96 24.03,51.64 70.87,100.89 136.93,148.93 67.26,48.04 160.94,96.09 281.05,144.13 120.11,48.04 276.25,100.89 469.62,157.34 208.99,61.26 385.55,124.91 529.68,192.17 142.93,66.06 259.43,140.53 348.31,223.41 90.09,81.67 153.74,174.15 193.38,277.45 38.43,103.29 57.65,220.99 57.65,351.91zm4236.22 -829.94c0,273.84 -38.44,526.07 -116.51,754.27 -76.87,229.41 -188.57,425.19 -333.9,588.53 -145.33,162.15 -323.09,289.47 -530.88,379.55 -208.98,90.08 -446.8,135.72 -711.04,135.72 -253.42,0 -480.43,-39.64 -681.01,-117.71 -200.58,-79.27 -371.13,-194.57 -510.46,-347.11 -139.33,-152.54 -246.22,-341.11 -320.69,-566.91 -73.26,-224.6 -110.5,-484.04 -110.5,-777.1 0,-275.05 38.44,-526.07 116.51,-751.88 76.87,-227 188.57,-421.58 333.9,-584.92 145.33,-162.15 323.09,-289.47 530.88,-379.55 208.98,-90.08 446.8,-135.72 711.04,-135.72 253.42,0 480.43,39.64 681.01,117.71 200.58,79.27 371.13,193.37 510.46,344.71 139.32,151.33 246.22,339.9 320.69,565.71 73.26,224.6 110.5,482.83 110.5,774.7zm-626.97 25.22c0,-217.4 -24.02,-408.37 -72.06,-571.72 -48.05,-163.34 -116.51,-299.07 -205.39,-408.36 -90.08,-109.3 -198.18,-190.98 -325.49,-246.23 -128.52,-55.25 -270.24,-82.87 -427.59,-82.87 -182.56,0 -339.9,36.03 -469.62,106.89 -129.71,72.07 -236.61,168.16 -319.49,287.06 -84.07,120.11 -144.13,259.44 -183.76,417.98 -38.44,158.54 -57.65,324.29 -57.65,497.25 0,218.59 24.02,410.77 72.06,574.11 48.04,164.55 116.51,301.48 205.39,410.77 90.08,109.3 196.97,190.98 324.29,246.23 126.11,55.25 269.04,82.87 428.78,82.87 182.57,0 339.91,-36.03 469.63,-106.9 129.71,-72.06 236.61,-168.15 319.49,-287.05 84.07,-120.11 144.13,-259.44 183.76,-417.98 38.44,-158.54 57.65,-325.49 57.65,-502.05zm4315.49 804.72c0,124.91 -21.62,236.62 -63.66,335.1 -42.03,98.49 -99.69,186.17 -172.95,261.84 -72.07,76.87 -157.34,141.73 -253.43,195.78 -96.09,54.05 -199.38,98.49 -308.68,133.32 -109.3,34.83 -221,61.25 -336.3,76.87 -115.31,16.81 -227.01,25.22 -337.51,25.22 -240.21,0 -460.01,-10.81 -661.79,-32.43 -200.58,-21.62 -397.56,-56.45 -589.73,-104.49l0 -562.11c206.58,58.85 411.97,103.29 616.15,134.52 205.39,30.03 408.37,45.64 610.15,45.64 294.27,0 511.66,-39.63 652.19,-118.91 140.53,-80.47 211.39,-193.37 211.39,-341.1 0,-63.66 -10.81,-120.11 -33.63,-170.56 -21.62,-50.44 -62.46,-98.49 -121.31,-144.13 -58.85,-45.64 -150.13,-93.68 -273.85,-142.93 -123.71,-49.24 -291.86,-105.69 -506.85,-168.15 -159.75,-48.04 -307.48,-100.89 -442,-160.94 -135.72,-60.06 -252.23,-130.92 -351.92,-212.59 -98.49,-81.68 -175.36,-178.96 -231.81,-288.26 -56.45,-110.5 -85.27,-241.42 -85.27,-391.56 0,-98.48 22.82,-206.58 68.46,-323.09 46.84,-117.7 124.91,-227 235.41,-327.89 110.5,-100.89 259.43,-184.97 448,-251.03 188.57,-67.26 423.99,-100.89 706.24,-100.89 139.33,0 293.06,7.21 462.42,22.82 169.35,14.41 345.91,40.84 529.67,78.07l0 547.7c-193.37,-46.85 -375.94,-81.68 -548.89,-103.3 -174.16,-22.82 -324.29,-33.63 -450.41,-33.63 -153.74,0 -282.25,12.01 -387.95,34.83 -104.49,24.03 -189.77,56.45 -253.42,97.29 -64.86,40.84 -111.7,88.88 -140.53,142.93 -27.63,55.25 -42.04,114.1 -42.04,177.76 0,63.66 12.01,121.31 37.23,172.96 24.03,51.64 70.87,100.89 136.93,148.93 67.26,48.04 160.94,96.09 281.05,144.13 120.11,48.04 276.25,100.89 469.62,157.34 208.99,61.26 385.55,124.91 529.68,192.17 142.93,66.06 259.43,140.53 348.31,223.41 90.09,81.67 153.74,174.15 193.38,277.45 38.43,103.29 57.65,220.99 57.65,351.91zm2549.9 -146.53c79.27,0 154.94,15.61 227,45.64 70.87,31.23 133.32,73.27 186.17,127.32 52.85,54.04 94.89,116.5 124.91,188.57 30.03,72.06 45.64,148.93 45.64,230.6 0,80.48 -15.61,156.14 -45.64,225.81 -30.02,70.86 -72.06,133.32 -124.91,186.16 -52.85,52.85 -115.3,93.69 -186.17,124.92 -72.06,30.02 -147.73,45.64 -227,45.64 -81.67,0 -158.54,-15.62 -228.21,-45.64 -70.86,-31.23 -132.12,-72.07 -184.96,-124.92 -52.85,-52.84 -94.89,-115.3 -124.92,-186.16 -30.02,-69.67 -45.64,-145.33 -45.64,-225.81 0,-81.67 15.62,-158.54 45.64,-230.6 30.03,-72.07 72.07,-134.53 124.92,-188.57 52.84,-54.05 114.1,-96.09 184.96,-127.32 69.67,-30.03 146.54,-45.64 228.21,-45.64zm5374.84 146.53c0,124.91 -21.62,236.62 -63.66,335.1 -42.03,98.49 -99.69,186.17 -172.95,261.84 -72.07,76.87 -157.34,141.73 -253.43,195.78 -96.09,54.05 -199.38,98.49 -308.68,133.32 -109.3,34.83 -221,61.25 -336.3,76.87 -115.31,16.81 -227.01,25.22 -337.51,25.22 -240.21,0 -460.01,-10.81 -661.79,-32.43 -200.58,-21.62 -397.56,-56.45 -589.73,-104.49l0 -562.11c206.58,58.85 411.97,103.29 616.15,134.52 205.39,30.03 408.37,45.64 610.15,45.64 294.27,0 511.66,-39.63 652.19,-118.91 140.53,-80.47 211.39,-193.37 211.39,-341.1 0,-63.66 -10.81,-120.11 -33.63,-170.56 -21.62,-50.44 -62.46,-98.49 -121.31,-144.13 -58.85,-45.64 -150.13,-93.68 -273.85,-142.93 -123.71,-49.24 -291.86,-105.69 -506.85,-168.15 -159.75,-48.04 -307.48,-100.89 -442,-160.94 -135.72,-60.06 -252.23,-130.92 -351.92,-212.59 -98.49,-81.68 -175.36,-178.96 -231.81,-288.26 -56.45,-110.5 -85.27,-241.42 -85.27,-391.56 0,-98.48 22.82,-206.58 68.46,-323.09 46.84,-117.7 124.91,-227 235.41,-327.89 110.5,-100.89 259.43,-184.97 448,-251.03 188.57,-67.26 423.99,-100.89 706.24,-100.89 139.33,0 293.06,7.21 462.42,22.82 169.35,14.41 345.91,40.84 529.67,78.07l0 547.7c-193.37,-46.85 -375.94,-81.68 -548.89,-103.3 -174.16,-22.82 -324.29,-33.63 -450.41,-33.63 -153.74,0 -282.25,12.01 -387.95,34.83 -104.49,24.03 -189.77,56.45 -253.42,97.29 -64.86,40.84 -111.7,88.88 -140.53,142.93 -27.63,55.25 -42.04,114.1 -42.04,177.76 0,63.66 12.01,121.31 37.23,172.96 24.03,51.64 70.87,100.89 136.93,148.93 67.26,48.04 160.94,96.09 281.05,144.13 120.11,48.04 276.25,100.89 469.62,157.34 208.99,61.26 385.55,124.91 529.68,192.17 142.93,66.06 259.43,140.53 348.31,223.41 90.09,81.67 153.74,174.15 193.38,277.45 38.43,103.29 57.65,220.99 57.65,351.91zm2362.53 -2063.46l-1044.94 0 0 -504.45 1664.7 0 0 3019.52 1052.15 0 0 511.66 -2832.15 0 0 -511.66 1160.24 0 0 -2515.07zm216.19 -1988.99c68.47,0 132.12,12.01 189.78,37.24 58.85,24.02 110.5,58.85 153.73,103.29 43.24,45.64 78.07,96.09 102.1,153.74 25.22,57.65 37.23,120.11 37.23,188.57 0,66.06 -12.01,128.51 -37.23,186.17 -24.03,58.85 -58.86,110.49 -102.1,156.14 -43.23,44.44 -94.88,79.27 -153.73,103.29 -57.66,25.22 -121.31,37.23 -189.78,37.23 -68.46,0 -132.11,-12.01 -189.77,-37.23 -58.85,-24.02 -110.5,-58.85 -153.73,-103.29 -43.24,-45.65 -78.07,-97.29 -102.1,-156.14 -25.22,-57.66 -37.23,-120.11 -37.23,-186.17 0,-68.46 12.01,-130.92 37.23,-188.57 24.03,-57.65 58.86,-108.1 102.1,-153.74 43.23,-44.44 94.88,-79.27 153.73,-103.29 57.66,-25.23 121.31,-37.24 189.77,-37.24zm5389.26 4965.27c-138.12,36.04 -281.05,61.26 -428.79,76.87 -147.73,15.62 -297.86,24.03 -450.4,24.03 -443.2,0 -773.5,-100.9 -990.89,-301.48 -218.6,-200.58 -326.7,-508.05 -326.7,-923.63l0 -1844.86 -988.49 0 0 -511.66 988.49 0 0 -972.88 612.55 -158.54 0 1131.42 1584.23 0 0 511.66 -1584.23 0 0 1794.42c0,253.42 67.26,443.2 201.78,568.11 134.53,126.11 332.7,188.57 595.74,188.57 111.7,0 235.41,-8.41 368.73,-26.43 133.32,-16.81 272.65,-44.44 417.98,-81.67l0 526.07zm4099.29 -1903.71c0,86.48 -1.2,159.74 -3.6,217.4 -2.4,58.85 -6.01,114.1 -10.81,165.75l-2479.03 0c0,361.52 100.89,640.17 302.67,833.55 201.78,193.37 492.44,290.66 873.19,290.66 103.29,0 206.58,-3.61 309.88,-12.01 103.29,-8.41 202.98,-19.22 299.06,-33.63 96.09,-14.42 188.57,-30.03 276.25,-48.05 88.88,-16.81 169.36,-36.03 245.02,-57.65l0 504.46c-166.95,46.84 -355.52,85.27 -565.71,114.1 -208.98,30.03 -427.58,44.44 -652.18,44.44 -303.88,0 -564.51,-40.84 -781.91,-123.71 -218.59,-81.68 -397.55,-200.58 -536.88,-356.72 -140.53,-156.14 -243.82,-347.12 -309.88,-574.12 -67.26,-225.8 -100.89,-482.84 -100.89,-768.69 0,-248.63 36.03,-484.04 106.9,-706.24 72.06,-221 176.56,-416.78 313.48,-583.73 136.92,-168.15 305.07,-301.47 504.45,-399.96 199.38,-98.48 426.39,-147.73 679.82,-147.73 246.22,0 463.61,38.44 654.58,116.51 189.78,76.87 349.52,186.16 479.24,327.89 130.91,141.73 229.4,314.69 296.66,517.67 66.06,201.78 99.69,428.78 99.69,679.81zm-634.17 -85.28c7.21,-157.34 -8.41,-301.47 -45.64,-431.19 -37.23,-129.71 -96.09,-242.61 -174.16,-336.3 -79.27,-93.68 -176.55,-166.95 -294.26,-219.8 -117.71,-52.84 -253.43,-79.27 -408.37,-79.27 -134.52,0 -255.83,25.23 -366.33,76.87 -110.5,51.65 -205.38,124.91 -285.86,218.6 -79.27,93.68 -144.13,206.58 -193.37,338.7 -49.24,130.92 -79.27,275.05 -91.28,432.39l1859.27 0z"/>
 </g>
</svg>
